<svg xmlns="http://www.w3.org/2000/svg" viewBox="0 0 250 250"><g transform="matrix(1.25,0,0,1.25,0,0)"><defs></defs><path d="M69.428 147.241c1.831 1.159 5-1.037 6.895-2.441 1.159-.854 6.589-6.162 5.491-7.932a43.24 43.24 0 0 1-1.4-2.257c2.5-1.342 3.173-5.491 2.135-8.115s-3.233-4.576-5.369-6.407c-4.027-3.416-7.993-6.833-12.02-10.25-2.746-2.38-5.613-4.759-9.091-5.858-3.478-1.037-7.749-.427-9.885 2.5-2.074 2.807-1.647 6.651-.549 9.946 2.624 7.87 8.359 14.46 10.373 22.453.61 2.258.976 4.82 2.746 6.285 2.928 2.5 6.345 2.623 9.579.366a3.176 3.176 0 0 0 1.095 1.71z" fill="#016a0d"></path><path d="M73.638 146.631a21.77 21.77 0 0 0 6.956-5.736 6.434 6.434 0 0 0 1.464-2.867.665.665 0 0 0-.122-.671c-.244-.244-.671-.122-1.037 0a28.027 28.027 0 0 0-6.468 4.21c-1.647 1.4-4.637 3.722-4.271 6.162a8.92 8.92 0 0 0 3.478-1.098z"></path><path d="M26.779 98.368a45.866 45.866 0 0 1-11.959 11.044c-2.624 1.708-5.492 3.112-7.627 5.491-3.112 3.417-4.149 8.3-3.6 12.874.488 4.576 2.441 8.847 4.576 12.935a95.994 95.994 0 0 0 19.1 24.9c15.376-.489 29.226 1.159 44.541-.245a46.787 46.787 0 0 1-1.282-17.206c.672-5.674 4.271-13.667 2.746-19.219-1.342-4.76-4.82-8.482-7.993-12.264a121.51 121.51 0 0 1-11.593-16.291A17.711 17.711 0 0 1 48.439 106a10.737 10.737 0 0 1-6.712 2.135 12.781 12.781 0 0 1-5.064-1.891 43.816 43.816 0 0 1-9.884-7.876z" fill="#00aa13"></path><path d="M5.912 183.3c19.524-4.881 39.781 1.342 59.672 4.21a180.648 180.648 0 0 0 97.38-13.24c15.315-6.712 30.2-17.207 37.036-32.46-31.362.61-63.822-8.3-93.841.915q-50.7 15.558-101.346 31.117a54.716 54.716 0 0 0 1.099 9.458z" fill="#008c6e"></path><path d="M94.871 144.739c-1.952-.549-3.905-1.342-5.918-1.22a10.237 10.237 0 0 1-3.051.061 5.9 5.9 0 0 1-2.868-2.013l-2.745-2.746a26.857 26.857 0 0 0-5.064 3.539 14.659 14.659 0 0 0-3.661 4.82c2.013 2.2 5.674 5.735 6.406 6.285 1.77 1.4 3.966.671 6.041.61l23.429-.549a20.225 20.225 0 0 1 .916-6.59 72.223 72.223 0 0 1-13.485-2.197z" fill="#dd4040"></path><path d="m97.678 169.389 36.548-11.592-20.379-2.38-35.45 9.457 19.281 4.515z" fill="#1e1e1e"></path><path d="m97.678 167.437 36.548-11.593-20.379-2.379-35.45 9.457 19.281 4.515zm-12.813-1.769a11.644 11.644 0 0 1 9.64 8.114c-2.562 2.929-6.833 3.417-10.738 3.478a52.611 52.611 0 0 1-12.752-.854 7.183 7.183 0 0 1-2.868-1.1 3.091 3.091 0 0 1-1.4-2.563 3.947 3.947 0 0 1 1.465-2.562c4.45-4.33 10.368-5.181 16.653-4.513z" fill="#fff6ff"></path><path d="M31.9 149.987c1.281-4.454-.915-9.4-2.563-13.485a53.961 53.961 0 0 0-5.491-10.738 60.054 60.054 0 0 1-3.234-.61 68.953 68.953 0 0 1-2.379 9.274 72.663 72.663 0 0 0-1.892 10.8c-.3 2.379-.549 4.7-.732 7.077a99.764 99.764 0 0 0 10.251 11.837 23.18 23.18 0 0 1 .854-4.088 20.9 20.9 0 0 1 2.623-5.369 18.581 18.581 0 0 0 2.563-4.698z"></path><path d="M58.69 171.586c2.44 2.929 6.711 3.844 10.433 2.99a19.185 19.185 0 0 1 2.563-.549c1.83-.122 3.6.732 5.369 1.342s4.637 1.281 5.857-.305c1.587.366 2.624.183 3.6-1.1a2.988 2.988 0 0 0 3.112-1.587c-3.417-2.562-7.383-5.125-11.593-5.8.854-1.16 3.112-.915 4.515-.549 1.282.305 3.051 1.1 4.393 1.037a3.613 3.613 0 0 0 2.868-1.709c-1.891-.854-3.722-1.708-5.613-2.5a31.175 31.175 0 0 0-6.041-2.2c-6.65-1.342-13.3 1.953-19.341 5.126-.794 1.594-1.282 4.401-.122 5.804z" fill="#f7846c"></path><path d="M74.065 170.671c1.709.732 2.746.976 4.21 1.769 1.526.854 4.637 2.624 4.637 2.624a4.157 4.157 0 0 0 1.16.183c-2.563-2.624-9.885-4.698-10.007-4.576zm2.563-1.892A30.039 30.039 0 0 1 82 170.61a21.374 21.374 0 0 1 4.515 3.295 1.515 1.515 0 0 0 1.038 0 24.472 24.472 0 0 0-4.577-3.356 17.766 17.766 0 0 0-6.348-1.77z" fill="#dd4040"></path><path d="M7.681 117.161c3.112-1.343 6.9.183 9.091 2.806 2.136 2.624 2.807 6.163 3.539 9.458 2.929 13.118 2.075 21.233 4.149 32.46a175.236 175.236 0 0 1 19.464 2.562c7.322 1.465 14.155 1.1 22.7-.732-.61 2.868-3.294 6.712-4.82 9.274-11.532-1.464-23 .549-34.595 1.587-3.6.305-10.8.915-12.325-1.038-.732-.915-1.22-4.515-1.465-5.674-.244-1.281-.732-2.563-1.1-3.844-1.037-3.6-2.074-7.139-3.051-10.738-2.318-8.421-4.576-16.963-4.942-25.688-.306-4.149-.367-8.847 3.355-10.433z" fill="#f7846c"></path><path d="M17.871 173.905c.549-2.5-.611-5.248-3.661-3.539a1.276 1.276 0 0 0-.366.244 7.731 7.731 0 0 0 .976 2.928 4.484 4.484 0 0 0 2.868 1.16c.061-.305.122-.549.183-.793z" fill="#dd4040"></path><path d="M9.512 161.274a17.9 17.9 0 0 0 6.772-.427c1.4-.244 6.773-1.891 8.908-4.149.366-.976-.671-2.257-.732-3.172 2.807-.061 5.308-3.478 5.553-6.285s-.855-5.552-1.953-8.115c-2.074-4.881-4.088-9.7-6.162-14.582-1.4-3.356-2.868-6.773-5.492-9.275s-6.711-3.844-9.945-2.2c-3.051 1.586-4.454 5.247-4.942 8.664-1.16 8.176.976 16.657-.733 24.772-.488 2.257-1.281 4.7-.366 6.9 1.526 3.6 4.515 5.186 8.42 4.637-.122.858.122 3.171.672 3.232z" fill="#00aa13"></path><path d="M64.425 48.519c-4.088-1.1-8.6 1.22-10.861 5.186a14.3 14.3 0 0 0-1.708 5.309 17.16 17.16 0 0 0 0 4.332 11.562 11.562 0 0 0 6.65 8.725 9.436 9.436 0 0 0 10.007-2.2c5.735-5.671 3.844-19.217-4.088-21.352z" fill="#1e1e1e"></path><path d="M61.069 77.745c-1.037 4.454.183 9.152 1.709 13.484s3.416 8.664 3.782 13.241-1.16 9.64-5.06 12.081a8.7 8.7 0 0 0 1.4-9.824 16.209 16.209 0 0 1-.733 7.444 9.153 9.153 0 0 1-6.162 5.613 6.607 6.607 0 0 0 1.708-5.064 6.739 6.739 0 0 0-2.379-4.942 9.357 9.357 0 0 1-1.1 9.335c1.465-3.234.122-7.017-1.525-10.128-1.647-3.173-3.966-5.919-5.613-9.092a24.223 24.223 0 0 1-1.892-17.511 6.521 6.521 0 0 0 3.417-.183C52.832 80.8 57.286 80 61.069 77.745z" fill="#222222"></path><path d="M30.806 103.493a69.937 69.937 0 0 0-.915-33.314c.854 1.709 2.867 2.136 4.637 2.929a74.963 74.963 0 0 0 12.02 3.966 140.375 140.375 0 0 0 2.928 27.64 15.392 15.392 0 0 1-9.276 2.806c-3.476-.12-6.649-1.952-9.394-4.027z"></path><path d="M41.056 91.412a17.763 17.763 0 0 1-5.556-3.721 27.58 27.58 0 0 1-3.295-3.234 71.43 71.43 0 0 1-1.4 19.036c2.684 2.075 5.918 3.966 9.335 4.027a15.27 15.27 0 0 0 9.274-2.806 157.185 157.185 0 0 1-2.2-14.7 6.24 6.24 0 0 1-6.158 1.398zm25.565-19.951a18.417 18.417 0 0 1-7.565 12.813c-4.576 3.111-10.922 3.294-16.169 2.318a18.36 18.36 0 0 1-11.837-7.5 28.57 28.57 0 0 1-2.99-7.016 117.114 117.114 0 0 1-2.929-13.729c-.793-4.576-2.135-9.762-.549-14.4 1.77-5.247 7.566-8.42 12.386-10.434 5.736-2.379 13.424-3.844 18.854.061a12.779 12.779 0 0 1 1.708 1.465c5.187 5.552 7.993 14.582 8.786 21.9.489 4.82.977 9.884.305 14.522z" fill="#f7846c"></path><path d="M24.46 67.617a11.544 11.544 0 0 1 2.746 4.82A6.136 6.136 0 0 0 24.4 70.85c-1.037-.244-1.952.061-3.234-.366 1.16-.122 1.953-.244 2.38-.732.427-.427-.244-2.379-2.2-4.21a13.747 13.747 0 0 1 3.114 2.075zm29.287-.244a36.8 36.8 0 0 0 4.882-1.892 7.237 7.237 0 0 1-4.211-3.6 31.066 31.066 0 0 1-2.074-6.223c0 4.576-.244 7.442 1.403 11.715z" fill="#dd4040"></path><path d="M65.157 50.471a4.361 4.361 0 0 0-4.088-.671 23.611 23.611 0 0 1-3.966.977 4.376 4.376 0 0 1-3.903-2.319 31.119 31.119 0 0 1 5.858-2.2 3.059 3.059 0 0 1 1.952-.061 5.222 5.222 0 0 1 1.89 1.285c1.037.854 1.342 1.83 2.257 2.989zm-31.728 6.468a7.361 7.361 0 0 1 4.393-2.624 34.213 34.213 0 0 0 4.943-1.159 5.84 5.84 0 0 0 3.535-3.905 62.647 62.647 0 0 0-7.566 1.037 6.8 6.8 0 0 0-2.319.916 6.791 6.791 0 0 0-1.647 2.013c-.789 1.283-.728 2.258-1.339 3.722z"></path><path d="M49.049 94.219c-.976 3.966-2.379 7.566-3.6 11.41a53.174 53.174 0 0 1-13.911-13.484 48.7 48.7 0 0 0-4.515 9.945c2.257 2.258 4.149 4.942 6.406 7.139 3.783 3.783 7.627 7.688 10.007 12.569.915-4.393 2.074-8.542 2.99-12.935 2.2 3.722 4.271 7.138 6.467 10.8-2.685-8.238-.549-17.39-3.844-25.444z" fill="#ffffff"></path><path d="M48.073 59.563a8.177 8.177 0 0 0-3.173-3.112 5.872 5.872 0 0 0-5.8.854 7.793 7.793 0 0 0-2.99 4.7A27.027 27.027 0 0 0 44.9 60.6c1.037-.3 2.136-.732 3.173-1.037zm17.877-3.6a7.15 7.15 0 0 0-3.172-2.99 5.874 5.874 0 0 0-5.8.854A7.891 7.891 0 0 0 53.93 58.4a26 26 0 0 0 8.848-1.342c1.037-.241 2.135-.79 3.172-1.095z" fill="#dd4040"></path><path d="M36.053 62a7.507 7.507 0 0 1 12.02-2.44s-1.281 1.83-5.247 2.745A11.78 11.78 0 0 1 36.053 62zm17.938-3.6a7.507 7.507 0 0 1 12.02-2.44s-1.281 1.83-5.247 2.745a11.674 11.674 0 0 1-6.773-.305z" fill="#ffffff"></path><path d="M43.07 57.549a10.171 10.171 0 0 1-1.4 3.112 22.641 22.641 0 0 1-1.4 1.952 13.291 13.291 0 0 0 2.563-.3c3.966-.915 5.247-2.745 5.247-2.745a7.62 7.62 0 0 0-5.01-2.019zm17.389-3.6a23.015 23.015 0 0 1-2.868 5.065 15.416 15.416 0 0 0 3.173-.306c3.966-.915 5.247-2.745 5.247-2.745a8.1 8.1 0 0 0-5.552-2.014z"></path><path d="M58.873 34.119a14.029 14.029 0 0 0-3.661-3.172c-3.783-2.258-8.542-2.014-12.813-1.16-8.42 1.709-21.722 6.407-25.383 14.4-4.759 10.25 3.722 22.27 1.284 33.013-.122.61-.3 1.159-.427 1.769-2.014 7.078-6.285 12.447-9.7 18.488-1.525 2.807-2.99 5.979-2.99 9.4 0 2.99 1.465 6.163 3.6 6.956.611 2.074 1.831 3.966 3.478 4.332a8.209 8.209 0 0 1 1.953-7.932 11 11 0 0 0 4.027 10.983 9.343 9.343 0 0 0 9.823.244c1.037 1.4 2.5 2.2 3.844 1.586-1.159-.549-1.586-2.379-1.647-4.027a16.492 16.492 0 0 1 .61-4.881c-.366 1.342.122 2.624.427 3.966a6.593 6.593 0 0 0 1.647 3.6c1.1.915 2.5.671 3.783.366-2.318-2.746-2.868-7.2-2.623-11.349.183-4.088 1.22-8.054 1.891-12.081 1.464-9.274-2.319-14.216-5.857-22.7a103.024 103.024 0 0 1-3.356-9.763c.183.183 7.566-9.7 5.064-22.514a21.715 21.715 0 0 0 14.033.793 6.455 6.455 0 0 0 1.465.366 8.615 8.615 0 0 0 6.284-.854 10.526 10.526 0 0 0 1.282.427c2.928.61 5.979-.61 8.542-2.2a27.046 27.046 0 0 0-4.58-8.056zm-51.5 73.035a4.962 4.962 0 0 1 1.769-3.539 20.971 20.971 0 0 0-.61 8.909.224.224 0 0 0 .061.183 7.966 7.966 0 0 1-1.217-5.553zM28 121.31a4.648 4.648 0 0 1-3.112-3.539 5.726 5.726 0 0 1 1.465-4.942c.061 2.44.061 5.125.976 7.26A7.78 7.78 0 0 0 28 121.31zm13.3-77.855a6.264 6.264 0 0 1-3.844-3.905c.794 1.4 2.136 2.013 3.539 2.745 1.282.672 2.624 1.343 3.966 1.892a12.214 12.214 0 0 1-3.661-.732zm7.444-1.465a8.645 8.645 0 0 1-2.135-4.942 26.926 26.926 0 0 0 3.416 4.452 11.313 11.313 0 0 0 3.417 2.441 5.811 5.811 0 0 1-4.698-1.951z" fill="#222222"></path><path d="M120.07 38.024c-.854-2.928-3.721-6.772-5.979-8.786-6.407-5.552-16.169-7.138-24.284-5.064-8.42 2.2-16.535 9.4-15.864 18.732.366 5.125 5.492 10.25 10.129 12.935-1.221 4.088-2.072 4.881-6.407 7.259 1.709.915 9.946.854 13.667-4.15 7.505 2.807 16.6 2.014 21.112-.732 8.115-4.94 9.823-12.384 7.626-20.194zM89.5 42.662a4.041 4.041 0 0 1-2.319 2.562 3.349 3.349 0 0 1-3.355-.61 2.893 2.893 0 0 1-.672-3.295 4.1 4.1 0 0 1 2.2-1.83c2.196-.854 5.002.305 4.146 3.173zm12.02 0a4.041 4.041 0 0 1-2.32 2.562 3.349 3.349 0 0 1-3.355-.61 2.893 2.893 0 0 1-.672-3.295 4.1 4.1 0 0 1 2.2-1.83c2.258-.854 5.064.305 4.149 3.173zm11.227 0a4.043 4.043 0 0 1-2.319 2.562 3.351 3.351 0 0 1-3.356-.61 2.9 2.9 0 0 1-.671-3.295 4.089 4.089 0 0 1 2.2-1.83c2.199-.854 4.999.305 4.148 3.173z" fill="#016a0d"></path><path d="M27.755 55.78c-4.088-1.1-8.6 1.22-10.861 5.186a14.291 14.291 0 0 0-1.708 5.308 17.16 17.16 0 0 0 0 4.332 11.56 11.56 0 0 0 6.651 8.725 9.432 9.432 0 0 0 10.006-2.2c5.735-5.67 3.844-19.216-4.088-21.351z" fill="#fff6ff"></path><path d="M40.324 77.745a2.59 2.59 0 0 0-.427 3.112 2.8 2.8 0 0 0 2.929 1.281 2.635 2.635 0 0 0 2.074-1.891c.61-2.441-2.807-4.147-4.576-2.502z"></path><path d="M42.093 79.27c-.122.306-.366.428-.427.733A24.572 24.572 0 0 1 20.372 66.4a2.628 2.628 0 0 0 1.22-1.22c3.908 7.562 11.959 13.358 20.501 14.09z"></path><path d="M24.033 60.6a5.526 5.526 0 0 0-5.857 2.318 6.319 6.319 0 0 0-.977 2.5 5.935 5.935 0 0 0-.061 2.075 5.593 5.593 0 0 0 3.417 4.271 5.521 5.521 0 0 0 5.37-.916c3.111-2.621 2.318-9.148-1.892-10.248z"></path><path d="M24.643 66.518a43.628 43.628 0 0 1-1.952-15.07 23.223 23.223 0 0 1 5.552-13.912c3.356-3.722 7.444-5.8 12.691-7.383a20.409 20.409 0 0 0-20.5 11.837 25.39 25.39 0 0 0-1.708 6.041 40.979 40.979 0 0 0 1.4 19.769 11.358 11.358 0 0 0 4.517-1.282z"></path><path d="M57.652 73.779c-.122 1.281-.3 2.746-1.281 3.6a4 4 0 0 1-3.417.671 6.836 6.836 0 0 1-4.332-2.99c2.929-.427 6.041-.732 9.03-1.281z" fill="#ffffff"></path><path d="M47.036 75.488a18.247 18.247 0 0 0 5.186 3.782 7.107 7.107 0 0 0 2.563.55 3 3 0 0 0 2.318-.977 4.42 4.42 0 0 0 .732-1.525 10.181 10.181 0 0 0 .3-3.051c-.3 0-.915-.366-.976-.061-.671 6.1-4.21 2.319-8.359.793-.6-.244-1.215.301-1.764.489z" fill="#dd4040"></path><path d="M55.212 71.216c1.525-.488 3.356-.732 4.393 0a1.675 1.675 0 0 1-.183 2.38 3.093 3.093 0 0 1-1.1.549C56.005 75 53.381 75 51 75.3c-1.221.184-4.088.489-4.821.061 2.809-.606 6.104-3.229 9.033-4.145z"></path><path d="M169.676 11.239a26.354 26.354 0 0 0-10.251-.061A27.269 27.269 0 0 0 140.816 24.3c-3.783 6.834-3.966 15.742.061 22.454s12.569 11.287 20.257 9.823a19.026 19.026 0 0 1-1.221 12.323 18.861 18.861 0 0 0 8.054-12.081c9.885-1.83 18.671-13.789 18.854-23.857.244-9.947-7.321-19.588-17.145-21.723zm-4.821 35.816a3.32 3.32 0 0 1-4.21 1.952 2.811 2.811 0 0 1-2.013-2.38 3.129 3.129 0 0 1 1.342-2.867 3.05 3.05 0 0 1 3.417-.3 3.176 3.176 0 0 1 1.464 3.595zm6.956-18.3a8.716 8.716 0 0 1-3.478 5.491c-.793.55-1.769.916-2.5 1.526a4.976 4.976 0 0 0-1.465 3.173 2.622 2.622 0 0 1-1.891 2.135 2.951 2.951 0 0 1-2.563-.915c-.671-.915-.488-2.319-.366-3.356a5.766 5.766 0 0 1 1.342-3.051c1.1-1.22 2.868-1.708 3.905-3.05a3.352 3.352 0 0 0-.549-4.821c-1.464-.976-3.3-.366-4.576.55-1.4.976-3.3 3.172-5.186 2.135a2.551 2.551 0 0 1-1.1-2.929 8.738 8.738 0 0 1 3.05-4.576A9.813 9.813 0 0 1 162.9 18.5c3.539.122 6.712 1.769 8.176 5.064a10.079 10.079 0 0 1 .735 5.186z" fill="#00aa13"></path><path d="m84.621 166.034-1.953-1.587q8.238-38.165 19.342-75.78c25.931-6.956 52.29-13.057 78.526-18.793l1.953 1.587-97.868 94.573m42.161 10.433c-3.966.549-21.233-3.234-23.308-3.661s-5.308-1.83 7.993-6.04 13.3-6.468 34.23-2.075z"></path><path d="M161.744 139.675a706.474 706.474 0 0 1 20.745-68.153c-26.3 5.735-52.595 11.836-78.526 18.792-7.383 25.016-13.79 50.337-19.342 75.786 25.379-7.876 52.351-17.151 77.123-26.425z" fill="#1e1e1e"></path><path d="M138.924 138.15c2.136-.793 5.125 2.013 5.919 6.223.732 4.027.427 9.092-2.624 10.251s2.746 1.769 4.82-.854c2.136-2.624 2.136-6.651 1.464-10.373-.61-3.722-5.43-7.627-8.542-6.773-3.05.794-1.037 1.526-1.037 1.526z"></path><path d="M153.751 157.186q-.915-5.765-2.014-11.531c-1.4-7.566-3.051-15.132-4.881-22.637a97.645 97.645 0 0 1-20.074 4.088c.488 14.278.976 28.494 1.465 42.772.061 1.525-.245 5.735-1.465 6.528 1.709.305 25.382-8.969 26.481-10.433 1.952-2.563.976-5.858.488-8.787zm-8.908-4.637a5.793 5.793 0 0 1-2.624 2.075 5.078 5.078 0 0 1-4.82-1.281 9.11 9.11 0 0 1-2.441-4.516 11.673 11.673 0 0 1-.183-5.8 7.255 7.255 0 0 1 3.417-4.576 4.992 4.992 0 0 1 5.491.427c3.539 2.872 3.722 10.254 1.16 13.671z" fill="#fff6ff"></path><path d="m126.782 127.106-.915 2.2s1.281 33.131.915 38.134a27.574 27.574 0 0 1-2.2 9.03 11.553 11.553 0 0 0 2.2 0c1.037-.122 2.258-1.1 2.014-7.627-.183-6.653-2.014-41.737-2.014-41.737zm-75.963 21.111-.427-.732a24.456 24.456 0 0 1 9.152-3.417l.122.854a23.241 23.241 0 0 0-8.847 3.295z"></path></g></svg>